<svg width="28" height="22" viewBox="0 0 28 22" fill="none" xmlns="http://www.w3.org/2000/svg">
<path d="M9.53223 0H18.1616C23.4262 0 27.6939 4.02946 27.6939 8.99773C27.6939 12.6229 25.423 15.744 22.1551 17.1702V20.4491C22.1551 21.4572 21.7563 22 21.1498 22C20.6658 21.9535 20.2137 21.7377 19.8731 21.3907L15.996 17.9955H9.53223C4.27039 17.9955 0 13.966 0 8.99773C0 4.02946 4.26762 0 9.53223 0Z" fill="#079C72"/>
<path d="M13.5745 7.88453C13.7995 7.88375 14.0197 7.94967 14.2072 8.07397C14.3947 8.19827 14.5412 8.37537 14.6281 8.58288C14.715 8.7904 14.7385 9.01901 14.6955 9.23985C14.6525 9.46068 14.545 9.66382 14.3866 9.82359C14.2282 9.98336 14.026 10.0926 13.8056 10.1375C13.5851 10.1824 13.3563 10.1609 13.1481 10.0758C12.9398 9.99073 12.7614 9.84581 12.6355 9.65938C12.5096 9.47295 12.4417 9.25337 12.4406 9.0284C12.4416 8.72704 12.5611 8.43818 12.7732 8.22417C12.9854 8.01016 13.2732 7.88816 13.5745 7.88453Z" fill="white"/>
<path d="M19.1827 7.88463C19.4078 7.88152 19.6287 7.94525 19.8176 8.06776C20.0065 8.19028 20.1548 8.36607 20.2437 8.57289C20.3327 8.77971 20.3583 9.00827 20.3173 9.22964C20.2763 9.45102 20.1706 9.65526 20.0135 9.81652C19.8564 9.97778 19.6549 10.0888 19.4347 10.1356C19.2145 10.1823 18.9854 10.1627 18.7763 10.0792C18.5672 9.99568 18.3876 9.85202 18.2602 9.6664C18.1328 9.48078 18.0633 9.26153 18.0606 9.03641C18.0582 8.887 18.0854 8.7386 18.1406 8.59973C18.1958 8.46086 18.2779 8.33427 18.3822 8.22724C18.4864 8.1202 18.6108 8.03483 18.7482 7.97604C18.8856 7.91724 19.0332 7.88618 19.1827 7.88463Z" fill="white"/>
<path d="M7.94892 7.88463C8.17497 7.88149 8.39683 7.94575 8.5862 8.06922C8.77558 8.19268 8.92389 8.36975 9.01221 8.57785C9.10054 8.78595 9.12488 9.01564 9.08213 9.23763C9.03938 9.45962 8.93148 9.66384 8.77219 9.82426C8.6129 9.98467 8.40944 10.094 8.18776 10.1383C7.96608 10.1826 7.73622 10.1599 7.5275 10.073C7.31879 9.98617 7.14068 9.83911 7.01589 9.65061C6.89109 9.46211 6.82527 9.24071 6.82683 9.01465C6.82785 8.71663 6.94615 8.431 7.15614 8.21953C7.36613 8.00806 7.65092 7.88775 7.94892 7.88463Z" fill="white"/>
</svg>
