<svg width="28" height="55" viewBox="0 0 28 55" fill="none" xmlns="http://www.w3.org/2000/svg">
<path d="M15.2415 48.4195V53.7544H14.0983V48.4784H13.9257C7.40413 48.4784 2.42847 45.6071 1 40.6235L1.97308 40.0365C3.2889 44.9612 7.97935 47.4223 13.9281 47.4223H14.1007V27.5516C8.14952 25.5596 2.60103 23.4497 2.60103 16.592C2.60103 10.8469 7.51917 6.27593 14.0983 6.27593V1H15.2415V6.33488C20.2747 6.62717 23.9921 9.14723 25.5931 13.3694L24.6799 13.8951C23.3641 10.3188 20.2747 7.73983 15.2415 7.38859V26.7902C21.4755 29.0179 26.7388 31.2457 26.7388 37.8111C26.7388 43.7896 22.3335 47.9504 15.2415 48.4195ZM14.0983 26.4389V7.32964C7.5767 7.32964 3.74668 11.9596 3.74668 16.592C3.74428 22.7472 9.00756 24.6213 14.0983 26.4389ZM25.5955 37.8111C25.5955 32.125 21.0776 29.9562 15.2439 27.9642V47.3658C22.2209 46.8967 25.5955 42.7334 25.5955 37.8111Z" fill="#079C72" stroke="#079C72" stroke-miterlimit="10"/>
</svg>
