<svg width="203" height="35" viewBox="0 0 203 35" fill="none" xmlns="http://www.w3.org/2000/svg">
<path d="M22.9392 8.2771V13.3616C20.4561 13.0068 17.2635 14.1893 17.2635 18.0913V26.9595H12.4155V8.39534H17.2635V11.9426C18.2094 9.34129 20.5743 8.2771 22.9392 8.2771Z" fill="white"/>
<path d="M44.223 8.39517V26.9594H39.375V24.7127C38.0744 26.3681 36.0642 27.4323 33.3446 27.4323C28.3784 27.4323 24.3582 23.1756 24.3582 17.6181C24.3582 12.0607 28.4967 7.80396 33.3446 7.80396C36.0642 7.80396 38.0744 8.86814 39.375 10.5235V8.39517H44.223ZM39.375 17.6181C39.375 14.5438 37.1284 12.4154 34.1723 12.4154C31.2163 12.4154 29.0879 14.5438 29.0879 17.6181C29.0879 20.6925 31.3345 22.8208 34.1723 22.8208C37.2467 22.9391 39.375 20.8107 39.375 17.6181Z" fill="white"/>
<path d="M97.5505 15.4898V26.9594H92.7026V16.1993C92.7026 13.7162 91.1654 12.4155 89.037 12.4155C86.6722 12.4155 84.8985 13.8344 84.8985 17.027V27.0777H80.0505V8.39523H84.8985V10.5236C85.9627 8.8682 87.9728 7.92226 90.4559 7.92226C94.4762 7.80401 97.5505 10.6419 97.5505 15.4898Z" fill="white"/>
<path d="M120.254 8.39501V26.1315C120.254 32.2802 115.406 34.9998 110.558 34.9998C106.537 34.9998 103.345 33.4626 101.689 30.5065L105.828 28.1416C106.656 29.5606 107.838 30.743 110.676 30.743C113.632 30.743 115.524 29.0876 115.524 26.1315V24.1214C114.223 25.895 112.213 26.9592 109.612 26.9592C104.291 26.9592 100.389 22.7024 100.389 17.4997C100.389 12.297 104.409 8.04028 109.612 8.04028C112.213 8.04028 114.223 9.10447 115.524 10.8781V8.39501H120.254ZM115.642 17.3815C115.642 14.4254 113.395 12.297 110.439 12.297C107.483 12.297 105.237 14.4254 105.237 17.3815C105.237 20.3376 107.483 22.466 110.439 22.466C113.395 22.466 115.642 20.3376 115.642 17.3815Z" fill="white"/>
<path d="M71.3008 26.9594H76.1488V8.39517L71.3008 3.42896V26.9594Z" fill="white"/>
<path d="M67.3986 0.118408V27.0779H62.6688V24.8312C61.3682 26.4867 59.358 27.5508 56.6384 27.5508C51.6722 27.5508 47.5337 23.2941 47.5337 17.7367C47.5337 12.1792 51.6722 7.92246 56.6384 7.92246C59.358 7.92246 61.3682 8.86841 62.6688 10.6421V0.118408H67.3986ZM62.6688 17.7367C62.6688 14.6623 60.4222 12.534 57.5844 12.534C54.6283 12.534 52.3817 14.6623 52.3817 17.7367C52.3817 20.811 54.6283 22.9394 57.5844 22.9394C60.4222 22.9394 62.6688 20.9292 62.6688 17.7367Z" fill="white"/>
<path d="M4.84797 8.27693L0 3.42896V20.6925C0 25.6587 2.24662 27.6688 8.98649 26.9594V22.5844C6.26689 22.7026 4.72973 22.7026 4.72973 20.6925V13.0067H8.98649V8.39517L4.84797 8.27693Z" fill="white"/>
<path d="M4.84797 5.2027L0 0H4.84797V5.2027Z" fill="#00D99D"/>
<path d="M76.1488 5.2027L71.3008 0H76.1488V5.2027Z" fill="#00D99D"/>
<path d="M130.068 17.855C130.068 12.1793 134.324 7.68604 140.237 7.68604C144.02 7.68604 147.331 9.69617 148.868 12.6523L144.612 15.1354C143.784 13.5982 142.247 12.534 140.237 12.534C137.28 12.534 135.034 14.7806 135.034 17.855C135.034 20.9293 137.28 23.0577 140.237 23.0577C142.247 23.0577 143.902 22.1117 144.612 20.5745L148.868 23.0577C147.213 26.0137 143.902 28.0239 140.118 28.0239C134.324 28.0239 130.068 23.5306 130.068 17.855Z" fill="white"/>
<path d="M150.996 17.855C150.996 12.1793 155.49 7.68604 161.165 7.68604C166.841 7.68604 171.334 12.061 171.334 17.855C171.334 23.6489 166.841 28.0239 161.165 28.0239C155.608 28.0239 150.996 23.5306 150.996 17.855ZM166.486 17.855C166.486 14.7806 164.24 12.534 161.284 12.534C158.328 12.534 156.081 14.7806 156.081 17.855C156.081 20.9293 158.328 23.1759 161.284 23.1759C164.121 23.1759 166.486 20.9293 166.486 17.855Z" fill="white"/>
<path d="M202.551 15.6083V27.4327H197.584V15.9631C197.584 13.7164 196.402 12.2975 194.392 12.2975C192.145 12.2975 190.844 13.7164 190.844 16.6725V27.4327H185.878V15.9631C185.878 13.7164 184.696 12.2975 182.686 12.2975C180.557 12.2975 179.02 13.7164 179.02 16.6725V27.4327H174.054V8.27725H179.02V10.2874C180.084 8.63198 181.858 7.68604 184.341 7.68604C186.706 7.68604 188.48 8.63198 189.544 10.4056C190.726 8.63198 192.618 7.68604 195.22 7.68604C199.713 7.68604 202.551 10.7604 202.551 15.6083Z" fill="white"/>
<path d="M126.047 27.0776C127.353 27.0776 128.412 26.0188 128.412 24.7128C128.412 23.4067 127.353 22.3479 126.047 22.3479C124.741 22.3479 123.682 23.4067 123.682 24.7128C123.682 26.0188 124.741 27.0776 126.047 27.0776Z" fill="white"/>
</svg>
